<?xml version="1.0" encoding="utf-8"?>
<!-- Generator: Adobe Illustrator 28.0.0, SVG Export Plug-In . SVG Version: 6.00 Build 0)  -->
<svg version="1.1" id="Laag_1" xmlns="http://www.w3.org/2000/svg" xmlns:xlink="http://www.w3.org/1999/xlink" x="0px" y="0px"
	 viewBox="0 0 64 64" style="enable-background:new 0 0 64 64;" xml:space="preserve">
<style type="text/css">
	.st0{display:none;}
	.st1{display:inline;}
	.st2{fill:none;stroke:#000000;stroke-miterlimit:10;}
	.st3{display:inline;fill:none;stroke:#A9519A;stroke-width:5.000000e-02;stroke-miterlimit:10;}
	.st4{fill:#FFFFFF;stroke:#FFFFFF;stroke-linecap:round;stroke-miterlimit:10;}
	.st5{fill:#FFFFFF;}
</style>
<g id="Laag_1_00000060004448006930303190000017626653603072081041_" class="st0">
	<g class="st1">
		<line class="st2" x1="-80.5" y1="32.4" x2="-54.3" y2="6.1"/>
		<line class="st2" x1="-54.3" y1="57.9" x2="-80.5" y2="31.6"/>
	</g>
	<g class="st1">
		<line class="st2" x1="-23.5" y1="32.4" x2="-49.7" y2="6.1"/>
		<line class="st2" x1="-49.7" y1="57.9" x2="-23.5" y2="31.6"/>
	</g>
	<text transform="matrix(1 0 0 1 -66.7506 38.4709)" class="st1" style="font-family:'Poppins-Bold'; font-size:18px;">K V</text>
	<rect class="st3" width="3.2" height="3.2"/>
	<rect x="3.2" class="st3" width="3.2" height="3.2"/>
	<rect x="6.4" class="st3" width="3.2" height="3.2"/>
	<rect x="9.6" class="st3" width="3.2" height="3.2"/>
	<rect x="12.8" class="st3" width="3.2" height="3.2"/>
	<rect x="16" class="st3" width="3.2" height="3.2"/>
	<rect x="19.2" class="st3" width="3.2" height="3.2"/>
	<rect x="22.4" class="st3" width="3.2" height="3.2"/>
	<rect x="25.6" class="st3" width="3.2" height="3.2"/>
	<rect x="28.8" class="st3" width="3.2" height="3.2"/>
	<rect x="32" class="st3" width="3.2" height="3.2"/>
	<rect x="35.2" class="st3" width="3.2" height="3.2"/>
	<rect x="38.4" class="st3" width="3.2" height="3.2"/>
	<rect x="41.6" class="st3" width="3.2" height="3.2"/>
	<rect x="44.8" class="st3" width="3.2" height="3.2"/>
	<rect x="48" class="st3" width="3.2" height="3.2"/>
	<rect x="51.2" class="st3" width="3.2" height="3.2"/>
	<rect x="54.4" class="st3" width="3.2" height="3.2"/>
	<rect x="57.6" class="st3" width="3.2" height="3.2"/>
	<rect x="60.8" class="st3" width="3.2" height="3.2"/>
	<rect y="3.2" class="st3" width="3.2" height="3.2"/>
	<rect x="3.2" y="3.2" class="st3" width="3.2" height="3.2"/>
	<rect x="6.4" y="3.2" class="st3" width="3.2" height="3.2"/>
	<rect x="9.6" y="3.2" class="st3" width="3.2" height="3.2"/>
	<rect x="12.8" y="3.2" class="st3" width="3.2" height="3.2"/>
	<rect x="16" y="3.2" class="st3" width="3.2" height="3.2"/>
	<rect x="19.2" y="3.2" class="st3" width="3.2" height="3.2"/>
	<rect x="22.4" y="3.2" class="st3" width="3.2" height="3.2"/>
	<rect x="25.6" y="3.2" class="st3" width="3.2" height="3.2"/>
	<rect x="28.8" y="3.2" class="st3" width="3.2" height="3.2"/>
	<rect x="32" y="3.2" class="st3" width="3.2" height="3.2"/>
	<rect x="35.2" y="3.2" class="st3" width="3.2" height="3.2"/>
	<rect x="38.4" y="3.2" class="st3" width="3.2" height="3.2"/>
	<rect x="41.6" y="3.2" class="st3" width="3.2" height="3.2"/>
	<rect x="44.8" y="3.2" class="st3" width="3.2" height="3.2"/>
	<rect x="48" y="3.2" class="st3" width="3.2" height="3.2"/>
	<rect x="51.2" y="3.2" class="st3" width="3.2" height="3.2"/>
	<rect x="54.4" y="3.2" class="st3" width="3.2" height="3.2"/>
	<rect x="57.6" y="3.2" class="st3" width="3.2" height="3.2"/>
	<rect x="60.8" y="3.2" class="st3" width="3.2" height="3.2"/>
	<rect y="6.4" class="st3" width="3.2" height="3.2"/>
	<rect x="3.2" y="6.4" class="st3" width="3.2" height="3.2"/>
	<rect x="6.4" y="6.4" class="st3" width="3.2" height="3.2"/>
	<rect x="9.6" y="6.4" class="st3" width="3.2" height="3.2"/>
	<rect x="12.8" y="6.4" class="st3" width="3.2" height="3.2"/>
	<rect x="16" y="6.4" class="st3" width="3.2" height="3.2"/>
	<rect x="19.2" y="6.4" class="st3" width="3.2" height="3.2"/>
	<rect x="22.4" y="6.4" class="st3" width="3.2" height="3.2"/>
	<rect x="25.6" y="6.4" class="st3" width="3.2" height="3.2"/>
	<rect x="28.8" y="6.4" class="st3" width="3.2" height="3.2"/>
	<rect x="32" y="6.4" class="st3" width="3.2" height="3.2"/>
	<rect x="35.2" y="6.4" class="st3" width="3.2" height="3.2"/>
	<rect x="38.4" y="6.4" class="st3" width="3.2" height="3.2"/>
	<rect x="41.6" y="6.4" class="st3" width="3.2" height="3.2"/>
	<rect x="44.8" y="6.4" class="st3" width="3.2" height="3.2"/>
	<rect x="48" y="6.4" class="st3" width="3.2" height="3.2"/>
	<rect x="51.2" y="6.4" class="st3" width="3.2" height="3.2"/>
	<rect x="54.4" y="6.4" class="st3" width="3.2" height="3.2"/>
	<rect x="57.6" y="6.4" class="st3" width="3.2" height="3.2"/>
	<rect x="60.8" y="6.4" class="st3" width="3.2" height="3.2"/>
	<rect y="9.6" class="st3" width="3.2" height="3.2"/>
	<rect x="3.2" y="9.6" class="st3" width="3.2" height="3.2"/>
	<rect x="6.4" y="9.6" class="st3" width="3.2" height="3.2"/>
	<rect x="9.6" y="9.6" class="st3" width="3.2" height="3.2"/>
	<rect x="12.8" y="9.6" class="st3" width="3.2" height="3.2"/>
	<rect x="16" y="9.6" class="st3" width="3.2" height="3.2"/>
	<rect x="19.2" y="9.6" class="st3" width="3.2" height="3.2"/>
	<rect x="22.4" y="9.6" class="st3" width="3.2" height="3.2"/>
	<rect x="25.6" y="9.6" class="st3" width="3.2" height="3.2"/>
	<rect x="28.8" y="9.6" class="st3" width="3.2" height="3.2"/>
	<rect x="32" y="9.6" class="st3" width="3.2" height="3.2"/>
	<rect x="35.2" y="9.6" class="st3" width="3.2" height="3.2"/>
	<rect x="38.4" y="9.6" class="st3" width="3.2" height="3.2"/>
	<rect x="41.6" y="9.6" class="st3" width="3.2" height="3.2"/>
	<rect x="44.8" y="9.6" class="st3" width="3.2" height="3.2"/>
	<rect x="48" y="9.6" class="st3" width="3.2" height="3.2"/>
	<rect x="51.2" y="9.6" class="st3" width="3.2" height="3.2"/>
	<rect x="54.4" y="9.6" class="st3" width="3.2" height="3.2"/>
	<rect x="57.6" y="9.6" class="st3" width="3.2" height="3.2"/>
	<rect x="60.8" y="9.6" class="st3" width="3.2" height="3.2"/>
	<rect y="12.8" class="st3" width="3.2" height="3.2"/>
	<rect x="3.2" y="12.8" class="st3" width="3.2" height="3.2"/>
	<rect x="6.4" y="12.8" class="st3" width="3.2" height="3.2"/>
	<rect x="9.6" y="12.8" class="st3" width="3.2" height="3.2"/>
	<rect x="12.8" y="12.8" class="st3" width="3.2" height="3.2"/>
	<rect x="16" y="12.8" class="st3" width="3.2" height="3.2"/>
	<rect x="19.2" y="12.8" class="st3" width="3.2" height="3.2"/>
	<rect x="22.4" y="12.8" class="st3" width="3.2" height="3.2"/>
	<rect x="25.6" y="12.8" class="st3" width="3.2" height="3.2"/>
	<rect x="28.8" y="12.8" class="st3" width="3.2" height="3.2"/>
	<rect x="32" y="12.8" class="st3" width="3.2" height="3.2"/>
	<rect x="35.2" y="12.8" class="st3" width="3.2" height="3.2"/>
	<rect x="38.4" y="12.8" class="st3" width="3.2" height="3.2"/>
	<rect x="41.6" y="12.8" class="st3" width="3.2" height="3.2"/>
	<rect x="44.8" y="12.8" class="st3" width="3.2" height="3.2"/>
	<rect x="48" y="12.8" class="st3" width="3.2" height="3.2"/>
	<rect x="51.2" y="12.8" class="st3" width="3.2" height="3.2"/>
	<rect x="54.4" y="12.8" class="st3" width="3.2" height="3.2"/>
	<rect x="57.6" y="12.8" class="st3" width="3.2" height="3.2"/>
	<rect x="60.8" y="12.8" class="st3" width="3.2" height="3.2"/>
	<rect y="16" class="st3" width="3.2" height="3.2"/>
	<rect x="3.2" y="16" class="st3" width="3.2" height="3.2"/>
	<rect x="6.4" y="16" class="st3" width="3.2" height="3.2"/>
	<rect x="9.6" y="16" class="st3" width="3.2" height="3.2"/>
	<rect x="12.8" y="16" class="st3" width="3.2" height="3.2"/>
	<rect x="16" y="16" class="st3" width="3.2" height="3.2"/>
	<rect x="19.2" y="16" class="st3" width="3.2" height="3.2"/>
	<rect x="22.4" y="16" class="st3" width="3.2" height="3.2"/>
	<rect x="25.6" y="16" class="st3" width="3.2" height="3.2"/>
	<rect x="28.8" y="16" class="st3" width="3.2" height="3.2"/>
	<rect x="32" y="16" class="st3" width="3.2" height="3.2"/>
	<rect x="35.2" y="16" class="st3" width="3.2" height="3.2"/>
	<rect x="38.4" y="16" class="st3" width="3.2" height="3.2"/>
	<rect x="41.6" y="16" class="st3" width="3.2" height="3.2"/>
	<rect x="44.8" y="16" class="st3" width="3.2" height="3.2"/>
	<rect x="48" y="16" class="st3" width="3.2" height="3.2"/>
	<rect x="51.2" y="16" class="st3" width="3.2" height="3.2"/>
	<rect x="54.4" y="16" class="st3" width="3.2" height="3.2"/>
	<rect x="57.6" y="16" class="st3" width="3.2" height="3.2"/>
	<rect x="60.8" y="16" class="st3" width="3.2" height="3.2"/>
	<rect y="19.2" class="st3" width="3.2" height="3.2"/>
	<rect x="3.2" y="19.2" class="st3" width="3.2" height="3.2"/>
	<rect x="6.4" y="19.2" class="st3" width="3.2" height="3.2"/>
	<rect x="9.6" y="19.2" class="st3" width="3.2" height="3.2"/>
	<rect x="12.8" y="19.2" class="st3" width="3.2" height="3.2"/>
	<rect x="16" y="19.2" class="st3" width="3.2" height="3.2"/>
	<rect x="19.2" y="19.2" class="st3" width="3.2" height="3.2"/>
	<rect x="22.4" y="19.2" class="st3" width="3.2" height="3.2"/>
	<rect x="25.6" y="19.2" class="st3" width="3.2" height="3.2"/>
	<rect x="28.8" y="19.2" class="st3" width="3.2" height="3.2"/>
	<rect x="32" y="19.2" class="st3" width="3.2" height="3.2"/>
	<rect x="35.2" y="19.2" class="st3" width="3.2" height="3.2"/>
	<rect x="38.4" y="19.2" class="st3" width="3.2" height="3.2"/>
	<rect x="41.6" y="19.2" class="st3" width="3.2" height="3.2"/>
	<rect x="44.8" y="19.2" class="st3" width="3.2" height="3.2"/>
	<rect x="48" y="19.2" class="st3" width="3.2" height="3.2"/>
	<rect x="51.2" y="19.2" class="st3" width="3.2" height="3.2"/>
	<rect x="54.4" y="19.2" class="st3" width="3.2" height="3.2"/>
	<rect x="57.6" y="19.2" class="st3" width="3.2" height="3.2"/>
	<rect x="60.8" y="19.2" class="st3" width="3.2" height="3.2"/>
	<rect y="22.4" class="st3" width="3.2" height="3.2"/>
	<rect x="3.2" y="22.4" class="st3" width="3.2" height="3.2"/>
	<rect x="6.4" y="22.4" class="st3" width="3.2" height="3.2"/>
	<rect x="9.6" y="22.4" class="st3" width="3.2" height="3.2"/>
	<rect x="12.8" y="22.4" class="st3" width="3.2" height="3.2"/>
	<rect x="16" y="22.4" class="st3" width="3.2" height="3.2"/>
	<rect x="19.2" y="22.4" class="st3" width="3.2" height="3.2"/>
	<rect x="22.4" y="22.4" class="st3" width="3.2" height="3.2"/>
	<rect x="25.6" y="22.4" class="st3" width="3.2" height="3.2"/>
	<rect x="28.8" y="22.4" class="st3" width="3.2" height="3.2"/>
	<rect x="32" y="22.4" class="st3" width="3.2" height="3.2"/>
	<rect x="35.2" y="22.4" class="st3" width="3.2" height="3.2"/>
	<rect x="38.4" y="22.4" class="st3" width="3.2" height="3.2"/>
	<rect x="41.6" y="22.4" class="st3" width="3.2" height="3.2"/>
	<rect x="44.8" y="22.4" class="st3" width="3.2" height="3.2"/>
	<rect x="48" y="22.4" class="st3" width="3.2" height="3.2"/>
	<rect x="51.2" y="22.4" class="st3" width="3.2" height="3.2"/>
	<rect x="54.4" y="22.4" class="st3" width="3.2" height="3.2"/>
	<rect x="57.6" y="22.4" class="st3" width="3.2" height="3.2"/>
	<rect x="60.8" y="22.4" class="st3" width="3.2" height="3.2"/>
	<rect y="25.6" class="st3" width="3.2" height="3.2"/>
	<rect x="3.2" y="25.6" class="st3" width="3.2" height="3.2"/>
	<rect x="6.4" y="25.6" class="st3" width="3.2" height="3.2"/>
	<rect x="9.6" y="25.6" class="st3" width="3.2" height="3.2"/>
	<rect x="12.8" y="25.6" class="st3" width="3.2" height="3.2"/>
	<rect x="16" y="25.6" class="st3" width="3.2" height="3.2"/>
	<rect x="19.2" y="25.6" class="st3" width="3.2" height="3.2"/>
	<rect x="22.4" y="25.6" class="st3" width="3.2" height="3.2"/>
	<rect x="25.6" y="25.6" class="st3" width="3.2" height="3.2"/>
	<rect x="28.8" y="25.6" class="st3" width="3.2" height="3.2"/>
	<rect x="32" y="25.6" class="st3" width="3.2" height="3.2"/>
	<rect x="35.2" y="25.6" class="st3" width="3.2" height="3.2"/>
	<rect x="38.4" y="25.6" class="st3" width="3.2" height="3.2"/>
	<rect x="41.6" y="25.6" class="st3" width="3.2" height="3.2"/>
	<rect x="44.8" y="25.6" class="st3" width="3.2" height="3.2"/>
	<rect x="48" y="25.6" class="st3" width="3.2" height="3.2"/>
	<rect x="51.2" y="25.6" class="st3" width="3.2" height="3.2"/>
	<rect x="54.4" y="25.6" class="st3" width="3.2" height="3.2"/>
	<rect x="57.6" y="25.6" class="st3" width="3.2" height="3.2"/>
	<rect x="60.8" y="25.6" class="st3" width="3.2" height="3.2"/>
	<rect y="28.8" class="st3" width="3.2" height="3.2"/>
	<rect x="3.2" y="28.8" class="st3" width="3.2" height="3.2"/>
	<rect x="6.4" y="28.8" class="st3" width="3.2" height="3.2"/>
	<rect x="9.6" y="28.8" class="st3" width="3.2" height="3.2"/>
	<rect x="12.8" y="28.8" class="st3" width="3.2" height="3.2"/>
	<rect x="16" y="28.8" class="st3" width="3.2" height="3.2"/>
	<rect x="19.2" y="28.8" class="st3" width="3.2" height="3.2"/>
	<rect x="22.4" y="28.8" class="st3" width="3.2" height="3.2"/>
	<rect x="25.6" y="28.8" class="st3" width="3.2" height="3.2"/>
	<rect x="28.8" y="28.8" class="st3" width="3.2" height="3.2"/>
	<rect x="32" y="28.8" class="st3" width="3.2" height="3.2"/>
	<rect x="35.2" y="28.8" class="st3" width="3.2" height="3.2"/>
	<rect x="38.4" y="28.8" class="st3" width="3.2" height="3.2"/>
	<rect x="41.6" y="28.8" class="st3" width="3.2" height="3.2"/>
	<rect x="44.8" y="28.8" class="st3" width="3.2" height="3.2"/>
	<rect x="48" y="28.8" class="st3" width="3.2" height="3.2"/>
	<rect x="51.2" y="28.8" class="st3" width="3.2" height="3.2"/>
	<rect x="54.4" y="28.8" class="st3" width="3.2" height="3.2"/>
	<rect x="57.6" y="28.8" class="st3" width="3.2" height="3.2"/>
	<rect x="60.8" y="28.8" class="st3" width="3.2" height="3.2"/>
	<rect y="32" class="st3" width="3.2" height="3.2"/>
	<rect x="3.2" y="32" class="st3" width="3.2" height="3.2"/>
	<rect x="6.4" y="32" class="st3" width="3.2" height="3.2"/>
	<rect x="9.6" y="32" class="st3" width="3.2" height="3.2"/>
	<rect x="12.8" y="32" class="st3" width="3.2" height="3.2"/>
	<rect x="16" y="32" class="st3" width="3.2" height="3.2"/>
	<rect x="19.2" y="32" class="st3" width="3.2" height="3.2"/>
	<rect x="22.4" y="32" class="st3" width="3.2" height="3.2"/>
	<rect x="25.6" y="32" class="st3" width="3.2" height="3.2"/>
	<rect x="28.8" y="32" class="st3" width="3.2" height="3.2"/>
	<rect x="32" y="32" class="st3" width="3.2" height="3.2"/>
	<rect x="35.2" y="32" class="st3" width="3.2" height="3.2"/>
	<rect x="38.4" y="32" class="st3" width="3.2" height="3.2"/>
	<rect x="41.6" y="32" class="st3" width="3.2" height="3.2"/>
	<rect x="44.8" y="32" class="st3" width="3.2" height="3.2"/>
	<rect x="48" y="32" class="st3" width="3.2" height="3.2"/>
	<rect x="51.2" y="32" class="st3" width="3.2" height="3.2"/>
	<rect x="54.4" y="32" class="st3" width="3.2" height="3.2"/>
	<rect x="57.6" y="32" class="st3" width="3.2" height="3.2"/>
	<rect x="60.8" y="32" class="st3" width="3.2" height="3.2"/>
	<rect y="35.2" class="st3" width="3.2" height="3.2"/>
	<rect x="3.2" y="35.2" class="st3" width="3.2" height="3.2"/>
	<rect x="6.4" y="35.2" class="st3" width="3.2" height="3.2"/>
	<rect x="9.6" y="35.2" class="st3" width="3.2" height="3.2"/>
	<rect x="12.8" y="35.2" class="st3" width="3.2" height="3.2"/>
	<rect x="16" y="35.2" class="st3" width="3.2" height="3.2"/>
	<rect x="19.2" y="35.2" class="st3" width="3.2" height="3.2"/>
	<rect x="22.4" y="35.2" class="st3" width="3.2" height="3.2"/>
	<rect x="25.6" y="35.2" class="st3" width="3.2" height="3.2"/>
	<rect x="28.8" y="35.2" class="st3" width="3.2" height="3.2"/>
	<rect x="32" y="35.2" class="st3" width="3.2" height="3.2"/>
	<rect x="35.2" y="35.2" class="st3" width="3.2" height="3.2"/>
	<rect x="38.4" y="35.2" class="st3" width="3.2" height="3.2"/>
	<rect x="41.6" y="35.2" class="st3" width="3.2" height="3.2"/>
	<rect x="44.8" y="35.2" class="st3" width="3.2" height="3.2"/>
	<rect x="48" y="35.2" class="st3" width="3.2" height="3.2"/>
	<rect x="51.2" y="35.2" class="st3" width="3.2" height="3.2"/>
	<rect x="54.4" y="35.2" class="st3" width="3.2" height="3.2"/>
	<rect x="57.6" y="35.2" class="st3" width="3.2" height="3.2"/>
	<rect x="60.8" y="35.2" class="st3" width="3.2" height="3.2"/>
	<rect y="38.4" class="st3" width="3.2" height="3.2"/>
	<rect x="3.2" y="38.4" class="st3" width="3.2" height="3.2"/>
	<rect x="6.4" y="38.4" class="st3" width="3.2" height="3.2"/>
	<rect x="9.6" y="38.4" class="st3" width="3.2" height="3.2"/>
	<rect x="12.8" y="38.4" class="st3" width="3.2" height="3.2"/>
	<rect x="16" y="38.4" class="st3" width="3.2" height="3.2"/>
	<rect x="19.2" y="38.4" class="st3" width="3.2" height="3.2"/>
	<rect x="22.4" y="38.4" class="st3" width="3.2" height="3.2"/>
	<rect x="25.6" y="38.4" class="st3" width="3.2" height="3.2"/>
	<rect x="28.8" y="38.4" class="st3" width="3.2" height="3.2"/>
	<rect x="32" y="38.4" class="st3" width="3.2" height="3.2"/>
	<rect x="35.2" y="38.4" class="st3" width="3.2" height="3.2"/>
	<rect x="38.4" y="38.4" class="st3" width="3.2" height="3.2"/>
	<rect x="41.6" y="38.4" class="st3" width="3.2" height="3.2"/>
	<rect x="44.8" y="38.4" class="st3" width="3.2" height="3.2"/>
	<rect x="48" y="38.4" class="st3" width="3.2" height="3.2"/>
	<rect x="51.2" y="38.4" class="st3" width="3.2" height="3.2"/>
	<rect x="54.4" y="38.4" class="st3" width="3.2" height="3.2"/>
	<rect x="57.6" y="38.4" class="st3" width="3.2" height="3.2"/>
	<rect x="60.8" y="38.4" class="st3" width="3.2" height="3.2"/>
	<rect y="41.6" class="st3" width="3.2" height="3.2"/>
	<rect x="3.2" y="41.6" class="st3" width="3.2" height="3.2"/>
	<rect x="6.4" y="41.6" class="st3" width="3.2" height="3.2"/>
	<rect x="9.6" y="41.6" class="st3" width="3.2" height="3.2"/>
	<rect x="12.8" y="41.6" class="st3" width="3.2" height="3.2"/>
	<rect x="16" y="41.6" class="st3" width="3.2" height="3.2"/>
	<rect x="19.2" y="41.6" class="st3" width="3.2" height="3.2"/>
	<rect x="22.4" y="41.6" class="st3" width="3.2" height="3.2"/>
	<rect x="25.6" y="41.6" class="st3" width="3.2" height="3.2"/>
	<rect x="28.8" y="41.6" class="st3" width="3.2" height="3.2"/>
	<rect x="32" y="41.6" class="st3" width="3.2" height="3.2"/>
	<rect x="35.2" y="41.6" class="st3" width="3.2" height="3.2"/>
	<rect x="38.4" y="41.6" class="st3" width="3.2" height="3.2"/>
	<rect x="41.6" y="41.6" class="st3" width="3.2" height="3.2"/>
	<rect x="44.8" y="41.6" class="st3" width="3.2" height="3.2"/>
	<rect x="48" y="41.6" class="st3" width="3.2" height="3.2"/>
	<rect x="51.2" y="41.6" class="st3" width="3.2" height="3.2"/>
	<rect x="54.4" y="41.6" class="st3" width="3.2" height="3.2"/>
	<rect x="57.6" y="41.6" class="st3" width="3.2" height="3.2"/>
	<rect x="60.8" y="41.6" class="st3" width="3.2" height="3.2"/>
	<rect y="44.8" class="st3" width="3.2" height="3.2"/>
	<rect x="3.2" y="44.8" class="st3" width="3.2" height="3.2"/>
	<rect x="6.4" y="44.8" class="st3" width="3.2" height="3.2"/>
	<rect x="9.6" y="44.8" class="st3" width="3.2" height="3.2"/>
	<rect x="12.8" y="44.8" class="st3" width="3.2" height="3.2"/>
	<rect x="16" y="44.8" class="st3" width="3.2" height="3.2"/>
	<rect x="19.2" y="44.8" class="st3" width="3.2" height="3.2"/>
	<rect x="22.4" y="44.8" class="st3" width="3.2" height="3.2"/>
	<rect x="25.6" y="44.8" class="st3" width="3.2" height="3.2"/>
	<rect x="28.8" y="44.8" class="st3" width="3.2" height="3.2"/>
	<rect x="32" y="44.8" class="st3" width="3.2" height="3.2"/>
	<rect x="35.2" y="44.8" class="st3" width="3.2" height="3.2"/>
	<rect x="38.4" y="44.8" class="st3" width="3.2" height="3.2"/>
	<rect x="41.6" y="44.8" class="st3" width="3.2" height="3.2"/>
	<rect x="44.8" y="44.8" class="st3" width="3.2" height="3.2"/>
	<rect x="48" y="44.8" class="st3" width="3.2" height="3.2"/>
	<rect x="51.2" y="44.8" class="st3" width="3.2" height="3.2"/>
	<rect x="54.4" y="44.8" class="st3" width="3.2" height="3.2"/>
	<rect x="57.6" y="44.8" class="st3" width="3.2" height="3.2"/>
	<rect x="60.8" y="44.8" class="st3" width="3.2" height="3.2"/>
	<rect y="48" class="st3" width="3.2" height="3.2"/>
	<rect x="3.2" y="48" class="st3" width="3.2" height="3.2"/>
	<rect x="6.4" y="48" class="st3" width="3.2" height="3.2"/>
	<rect x="9.6" y="48" class="st3" width="3.2" height="3.2"/>
	<rect x="12.8" y="48" class="st3" width="3.2" height="3.2"/>
	<rect x="16" y="48" class="st3" width="3.2" height="3.2"/>
	<rect x="19.2" y="48" class="st3" width="3.2" height="3.2"/>
	<rect x="22.4" y="48" class="st3" width="3.2" height="3.2"/>
	<rect x="25.6" y="48" class="st3" width="3.2" height="3.2"/>
	<rect x="28.8" y="48" class="st3" width="3.2" height="3.2"/>
	<rect x="32" y="48" class="st3" width="3.2" height="3.2"/>
	<rect x="35.2" y="48" class="st3" width="3.2" height="3.2"/>
	<rect x="38.4" y="48" class="st3" width="3.2" height="3.2"/>
	<rect x="41.6" y="48" class="st3" width="3.2" height="3.2"/>
	<rect x="44.8" y="48" class="st3" width="3.2" height="3.2"/>
	<rect x="48" y="48" class="st3" width="3.2" height="3.2"/>
	<rect x="51.2" y="48" class="st3" width="3.2" height="3.2"/>
	<rect x="54.4" y="48" class="st3" width="3.2" height="3.2"/>
	<rect x="57.6" y="48" class="st3" width="3.2" height="3.2"/>
	<rect x="60.8" y="48" class="st3" width="3.2" height="3.2"/>
	<rect y="51.2" class="st3" width="3.2" height="3.2"/>
	<rect x="3.2" y="51.2" class="st3" width="3.2" height="3.2"/>
	<rect x="6.4" y="51.2" class="st3" width="3.2" height="3.2"/>
	<rect x="9.6" y="51.2" class="st3" width="3.2" height="3.2"/>
	<rect x="12.8" y="51.2" class="st3" width="3.2" height="3.2"/>
	<rect x="16" y="51.2" class="st3" width="3.2" height="3.2"/>
	<rect x="19.2" y="51.2" class="st3" width="3.2" height="3.2"/>
	<rect x="22.4" y="51.2" class="st3" width="3.2" height="3.2"/>
	<rect x="25.6" y="51.2" class="st3" width="3.2" height="3.2"/>
	<rect x="28.8" y="51.2" class="st3" width="3.2" height="3.2"/>
	<rect x="32" y="51.2" class="st3" width="3.2" height="3.2"/>
	<rect x="35.2" y="51.2" class="st3" width="3.2" height="3.2"/>
	<rect x="38.4" y="51.2" class="st3" width="3.2" height="3.2"/>
	<rect x="41.6" y="51.2" class="st3" width="3.2" height="3.2"/>
	<rect x="44.8" y="51.2" class="st3" width="3.2" height="3.2"/>
	<rect x="48" y="51.2" class="st3" width="3.2" height="3.2"/>
	<rect x="51.2" y="51.2" class="st3" width="3.2" height="3.2"/>
	<rect x="54.4" y="51.2" class="st3" width="3.2" height="3.2"/>
	<rect x="57.6" y="51.2" class="st3" width="3.2" height="3.2"/>
	<rect x="60.8" y="51.2" class="st3" width="3.2" height="3.2"/>
	<rect y="54.4" class="st3" width="3.2" height="3.2"/>
	<rect x="3.2" y="54.4" class="st3" width="3.2" height="3.2"/>
	<rect x="6.4" y="54.4" class="st3" width="3.2" height="3.2"/>
	<rect x="9.6" y="54.4" class="st3" width="3.2" height="3.2"/>
	<rect x="12.8" y="54.4" class="st3" width="3.2" height="3.2"/>
	<rect x="16" y="54.4" class="st3" width="3.2" height="3.2"/>
	<rect x="19.2" y="54.4" class="st3" width="3.2" height="3.2"/>
	<rect x="22.4" y="54.4" class="st3" width="3.2" height="3.2"/>
	<rect x="25.6" y="54.4" class="st3" width="3.2" height="3.2"/>
	<rect x="28.8" y="54.4" class="st3" width="3.2" height="3.2"/>
	<rect x="32" y="54.4" class="st3" width="3.2" height="3.2"/>
	<rect x="35.2" y="54.4" class="st3" width="3.2" height="3.2"/>
	<rect x="38.4" y="54.4" class="st3" width="3.2" height="3.2"/>
	<rect x="41.6" y="54.4" class="st3" width="3.2" height="3.2"/>
	<rect x="44.8" y="54.4" class="st3" width="3.2" height="3.2"/>
	<rect x="48" y="54.4" class="st3" width="3.2" height="3.2"/>
	<rect x="51.2" y="54.4" class="st3" width="3.2" height="3.2"/>
	<rect x="54.4" y="54.4" class="st3" width="3.2" height="3.2"/>
	<rect x="57.6" y="54.4" class="st3" width="3.2" height="3.2"/>
	<rect x="60.8" y="54.4" class="st3" width="3.2" height="3.2"/>
	<rect y="57.6" class="st3" width="3.2" height="3.2"/>
	<rect x="3.2" y="57.6" class="st3" width="3.2" height="3.2"/>
	<rect x="6.4" y="57.6" class="st3" width="3.2" height="3.2"/>
	<rect x="9.6" y="57.6" class="st3" width="3.2" height="3.2"/>
	<rect x="12.8" y="57.6" class="st3" width="3.2" height="3.2"/>
	<rect x="16" y="57.6" class="st3" width="3.2" height="3.2"/>
	<rect x="19.2" y="57.6" class="st3" width="3.2" height="3.2"/>
	<rect x="22.4" y="57.6" class="st3" width="3.2" height="3.2"/>
	<rect x="25.6" y="57.6" class="st3" width="3.2" height="3.2"/>
	<rect x="28.8" y="57.6" class="st3" width="3.2" height="3.2"/>
	<rect x="32" y="57.6" class="st3" width="3.2" height="3.2"/>
	<rect x="35.2" y="57.6" class="st3" width="3.2" height="3.2"/>
	<rect x="38.4" y="57.6" class="st3" width="3.2" height="3.2"/>
	<rect x="41.6" y="57.6" class="st3" width="3.2" height="3.2"/>
	<rect x="44.8" y="57.6" class="st3" width="3.2" height="3.2"/>
	<rect x="48" y="57.6" class="st3" width="3.2" height="3.2"/>
	<rect x="51.2" y="57.6" class="st3" width="3.2" height="3.2"/>
	<rect x="54.4" y="57.6" class="st3" width="3.2" height="3.2"/>
	<rect x="57.6" y="57.6" class="st3" width="3.2" height="3.2"/>
	<rect x="60.8" y="57.6" class="st3" width="3.2" height="3.2"/>
	<rect y="60.8" class="st3" width="3.2" height="3.2"/>
	<rect x="3.2" y="60.8" class="st3" width="3.2" height="3.2"/>
	<rect x="6.4" y="60.8" class="st3" width="3.2" height="3.2"/>
	<rect x="9.6" y="60.8" class="st3" width="3.2" height="3.2"/>
	<rect x="12.8" y="60.8" class="st3" width="3.2" height="3.2"/>
	<rect x="16" y="60.8" class="st3" width="3.2" height="3.2"/>
	<rect x="19.2" y="60.8" class="st3" width="3.2" height="3.2"/>
	<rect x="22.4" y="60.8" class="st3" width="3.2" height="3.2"/>
	<rect x="25.6" y="60.8" class="st3" width="3.2" height="3.2"/>
	<rect x="28.8" y="60.8" class="st3" width="3.2" height="3.2"/>
	<rect x="32" y="60.8" class="st3" width="3.2" height="3.2"/>
	<rect x="35.2" y="60.8" class="st3" width="3.2" height="3.2"/>
	<rect x="38.4" y="60.8" class="st3" width="3.2" height="3.2"/>
	<rect x="41.6" y="60.8" class="st3" width="3.2" height="3.2"/>
	<rect x="44.8" y="60.8" class="st3" width="3.2" height="3.2"/>
	<rect x="48" y="60.8" class="st3" width="3.2" height="3.2"/>
	<rect x="51.2" y="60.8" class="st3" width="3.2" height="3.2"/>
	<rect x="54.4" y="60.8" class="st3" width="3.2" height="3.2"/>
	<rect x="57.6" y="60.8" class="st3" width="3.2" height="3.2"/>
	<rect x="60.8" y="60.8" class="st3" width="3.2" height="3.2"/>
</g>
<g id="Laag_2_00000003820280870876705690000001420353208953192602_">
	<line class="st4" x1="3.2" y1="32" x2="28.8" y2="6.4"/>
	<line class="st4" x1="35.2" y1="57.6" x2="60.8" y2="32"/>
	<line class="st4" x1="35.2" y1="6.4" x2="60.8" y2="32"/>
	<line class="st4" x1="3.2" y1="32" x2="28.8" y2="57.6"/>
	<g>
		<path class="st5" d="M26,37.7l-4.2-5.6v5.6h-3.1V25.1h3.1v5.5l4.2-5.5h3.6l-4.9,6.2l5.1,6.4H26z"/>
		<path class="st5" d="M46.9,25.1l-4.5,12.6h-3.9L34,25.1h3.3l3.1,9.5l3.1-9.5C43.5,25.1,46.9,25.1,46.9,25.1z"/>
	</g>
</g>
</svg>
